<?xml version="1.0" encoding="UTF-8"?>
<svg version="1.1" xmlns="http://www.w3.org/2000/svg" width="64" height="64">
<path d="M0 0 C1.37514417 0.0366008 2.7501615 0.07830737 4.125 0.125 C6.13702592 0.125 8.15082672 0.12366157 10.16015625 0.01953125 C15.62720379 -0.20167877 15.62720379 -0.20167877 18.125 1.4375 C19.125 3.125 19.125 3.125 19.125 6.125 C21.435 6.455 23.745 6.785 26.125 7.125 C26.62 10.59 26.62 10.59 27.125 14.125 C27.764375 14.24875 28.40375 14.3725 29.0625 14.5 C29.743125 14.70625 30.42375 14.9125 31.125 15.125 C32.6033226 18.08164519 32.18532783 20.86729737 32.125 24.125 C33.115 24.455 34.105 24.785 35.125 25.125 C38.00341118 30.88182236 35.61409168 37.95479987 34.07421875 43.8046875 C33.125 46.125 33.125 46.125 30.125 48.125 C29.898125 48.846875 29.67125 49.56875 29.4375 50.3125 C27.37210157 54.73835378 24.32154795 57.64743604 20.125 60.125 C14.59887223 61.23190268 10.24449128 60.29690539 5.125 58.125 C4.135 58.785 3.145 59.445 2.125 60.125 C-2.55249558 61.1550622 -6.38998867 61.05894155 -10.49609375 58.4765625 C-16.88628428 52.97588649 -16.88628428 52.97588649 -17.875 48.125 C-18.514375 47.568125 -19.15375 47.01125 -19.8125 46.4375 C-23.64337664 42.14227467 -23.95968893 36.34991239 -24.125 30.75 C-23.875 27.125 -23.875 27.125 -21.875 24.125 C-21.215 24.125 -20.555 24.125 -19.875 24.125 C-19.936875 23.031875 -19.99875 21.93875 -20.0625 20.8125 C-19.875 17.125 -19.875 17.125 -18.5 15.1875 C-16.875 14.125 -16.875 14.125 -14.875 14.125 C-14.545 11.815 -14.215 9.505 -13.875 7.125 C-10.41 6.63 -10.41 6.63 -6.875 6.125 C-6.75125 5.50625 -6.6275 4.8875 -6.5 4.25 C-5.31905627 0.23479132 -4.1451978 0.13371606 0 0 Z M-2.875 3.125 C-3.80565133 5.73082371 -4.02417407 6.76698224 -2.9375 9.375 C-2.586875 9.9525 -2.23625 10.53 -1.875 11.125 C-2.431875 10.795 -2.98875 10.465 -3.5625 10.125 C-6.17784522 8.9940399 -8.0556646 8.96837026 -10.875 9.125 C-11.1225 10.23875 -11.37 11.3525 -11.625 12.5 C-12.875 16.125 -12.875 16.125 -15 17.5625 C-15.61875 17.748125 -16.2375 17.93375 -16.875 18.125 C-16.875 19.775 -16.875 21.425 -16.875 23.125 C-15.555 23.785 -14.235 24.445 -12.875 25.125 C-14.5765625 25.5890625 -14.5765625 25.5890625 -16.3125 26.0625 C-19.66275099 26.75424531 -19.66275099 26.75424531 -20.875 28.125 C-20.91580783 30.12458364 -20.91754356 32.12545254 -20.875 34.125 C-19.555 34.125 -18.235 34.125 -16.875 34.125 C-17.865 35.61 -17.865 35.61 -18.875 37.125 C-19.2917552 40.16711431 -19.2917552 40.16711431 -18.875 43.125 C-17.885 43.785 -16.895 44.445 -15.875 45.125 C-14.555 44.465 -13.235 43.805 -11.875 43.125 C-11.875 41.475 -11.875 39.825 -11.875 38.125 C-10.885 38.125 -9.895 38.125 -8.875 38.125 C-8.9575 39.0325 -9.04 39.94 -9.125 40.875 C-9.18524799 44.22541408 -9.18524799 44.22541408 -6.875 46.5 C-6.215 47.03625 -5.555 47.5725 -4.875 48.125 C-7.515 47.465 -10.155 46.805 -12.875 46.125 C-13.37 48.6 -13.37 48.6 -13.875 51.125 C-13.2975 51.3725 -12.72 51.62 -12.125 51.875 C-9.875 53.125 -9.875 53.125 -8 55.25 C-5.95823437 57.40781814 -5.95823437 57.40781814 -2.8125 57.5 C0.31042374 57.32267963 0.31042374 57.32267963 3.125 55.125 C7.19990752 54.78542437 8.65501271 54.81167514 12.125 57.125 C15.0399255 57.7088196 15.0399255 57.7088196 18.125 57.125 C20.83348923 54.74994782 20.83348923 54.74994782 23.125 52.125 C24.115 51.795 25.105 51.465 26.125 51.125 C25.795 49.475 25.465 47.825 25.125 46.125 C22.485 46.785 19.845 47.445 17.125 48.125 C17.764375 47.58875 18.40375 47.0525 19.0625 46.5 C21.51029404 43.68132807 21.79214612 41.78639268 22.125 38.125 C22.455 38.125 22.785 38.125 23.125 38.125 C23.186875 38.90875 23.24875 39.6925 23.3125 40.5 C23.580625 41.36625 23.84875 42.2325 24.125 43.125 C26.60136012 44.49966625 26.60136012 44.49966625 29.125 45.125 C31.41487808 43.25282652 31.41487808 43.25282652 31.4375 40.25 C31.0986202 36.86120199 30.39683419 35.58615371 28.125 33.125 C29.775 33.455 31.425 33.785 33.125 34.125 C33.29181109 31.20847826 33.29181109 31.20847826 33.125 28.125 C31.16866025 25.71378141 31.16866025 25.71378141 27.5 26 C25.829375 26.061875 25.829375 26.061875 24.125 26.125 C24.125 25.135 24.125 24.145 24.125 23.125 C25.775 23.125 27.425 23.125 29.125 23.125 C29.125 21.475 29.125 19.825 29.125 18.125 C28.196875 17.8465625 28.196875 17.8465625 27.25 17.5625 C24.06897134 15.41062767 23.93048053 12.74966237 23.125 9.125 C19.40900809 8.92413557 18.35291555 8.9730563 15.125 11.125 C15.4034375 9.4234375 15.4034375 9.4234375 15.6875 7.6875 C15.831875 6.511875 15.97625 5.33625 16.125 4.125 C15.0360339 2.81127745 15.0360339 2.81127745 12.375 3 C9.17886069 3.03706419 9.17886069 3.03706419 6.3125 3.6875 C5.590625 3.831875 4.86875 3.97625 4.125 4.125 C3.795 3.795 3.465 3.465 3.125 3.125 C1.12541636 3.08419217 -0.87545254 3.08245644 -2.875 3.125 Z " fill="#000000" transform="translate(25.875,1.875)"/>
<path d="M0 0 C0.66 0.33 1.32 0.66 2 1 C1.73958333 3.01822917 1.47916667 5.03645833 1.21875 7.0546875 C0.9627515 9.00498344 0.9627515 9.00498344 1 11 C-0.32 10.67 -1.64 10.34 -3 10 C-3.36923077 3.47692308 -3.36923077 3.47692308 -1.5 1.0625 C-1.005 0.711875 -0.51 0.36125 0 0 Z " fill="#000000" transform="translate(39,15)"/>
<path d="M0 0 C1.32 0 2.64 0 4 0 C5.4783226 2.95664519 5.06032783 5.74229737 5 9 C3.68 9.33 2.36 9.66 1 10 C1.020625 8.906875 1.04125 7.81375 1.0625 6.6875 C1.18544452 3.05615809 1.18544452 3.05615809 0 0 Z " fill="#000000" transform="translate(23,16)"/>
<path d="M0 0 C0.66 0.33 1.32 0.66 2 1 C1.34 3.97 0.68 6.94 0 10 C-0.99 10 -1.98 10 -3 10 C-3.36923077 3.47692308 -3.36923077 3.47692308 -1.5 1.0625 C-1.005 0.711875 -0.51 0.36125 0 0 Z " fill="#000000" transform="translate(39,45)"/>
<path d="M0 0 C1.32 0 2.64 0 4 0 C5.4783226 2.95664519 5.06032783 5.74229737 5 9 C4.01 9 3.02 9 2 9 C1.34 6.03 0.68 3.06 0 0 Z " fill="#000000" transform="translate(23,46)"/>
<path d="M0 0 C1.134375 0.020625 2.26875 0.04125 3.4375 0.0625 C3.4375 0.7225 3.4375 1.3825 3.4375 2.0625 C-2.1875 5.0625 -2.1875 5.0625 -5.5625 5.0625 C-4.43693182 0.07784091 -4.43693182 0.07784091 0 0 Z " fill="#000000" transform="translate(44.5625,34.9375)"/>
<path d="M0 0 C5.5 -0.36666667 5.5 -0.36666667 7.875 1.375 C9 3 9 3 9 5 C7.68 5 6.36 5 5 5 C5 4.34 5 3.68 5 3 C3.35 2.67 1.7 2.34 0 2 C0 1.34 0 0.68 0 0 Z " fill="#000000" transform="translate(17,35)"/>
<path d="M0 0 C0.99 0 1.98 0 3 0 C2.75 2.875 2.75 2.875 2 6 C-0.0625 7.375 -0.0625 7.375 -2 8 C-2 4.23312136 -1.76462683 3.08809695 0 0 Z " fill="#000000" transform="translate(45,23)"/>
<path d="M0 0 C0.99 0 1.98 0 3 0 C6 4.22222222 6 4.22222222 6 7 C4.35 6.67 2.7 6.34 1 6 C0.67 4.02 0.34 2.04 0 0 Z " fill="#000000" transform="translate(16,23)"/>
<path d="M0 0 C1.32 0 2.64 0 4 0 C4 0.66 4 1.32 4 2 C2.68 2 1.36 2 0 2 C0 1.34 0 0.68 0 0 Z " fill="#000000" transform="translate(30,53)"/>
<path d="M0 0 C1.32 0 2.64 0 4 0 C4 0.66 4 1.32 4 2 C2.68 2 1.36 2 0 2 C0 1.34 0 0.68 0 0 Z " fill="#000000" transform="translate(30,48)"/>
<path d="M0 0 C1.32 0 2.64 0 4 0 C4 0.66 4 1.32 4 2 C2.68 2 1.36 2 0 2 C0 1.34 0 0.68 0 0 Z " fill="#000000" transform="translate(30,43)"/>
<path d="M0 0 C1.32 0 2.64 0 4 0 C4 0.66 4 1.32 4 2 C2.68 2 1.36 2 0 2 C0 1.34 0 0.68 0 0 Z " fill="#000000" transform="translate(30,38)"/>
<path d="M0 0 C1.32 0 2.64 0 4 0 C4 0.66 4 1.32 4 2 C2.68 2 1.36 2 0 2 C0 1.34 0 0.68 0 0 Z " fill="#000000" transform="translate(30,33)"/>
<path d="M0 0 C1.32 0 2.64 0 4 0 C4 0.66 4 1.32 4 2 C2.68 2 1.36 2 0 2 C0 1.34 0 0.68 0 0 Z " fill="#000000" transform="translate(30,28)"/>
<path d="M0 0 C1.32 0 2.64 0 4 0 C4 0.66 4 1.32 4 2 C2.68 2 1.36 2 0 2 C0 1.34 0 0.68 0 0 Z " fill="#000000" transform="translate(30,23)"/>
<path d="M0 0 C1.32 0 2.64 0 4 0 C4 0.66 4 1.32 4 2 C2.68 2 1.36 2 0 2 C0 1.34 0 0.68 0 0 Z " fill="#000000" transform="translate(30,18)"/>
<path d="M0 0 C1.32 0 2.64 0 4 0 C4 0.66 4 1.32 4 2 C2.68 2 1.36 2 0 2 C0 1.34 0 0.68 0 0 Z " fill="#000000" transform="translate(30,13)"/>
<path d="M0 0 C1.32 0 2.64 0 4 0 C4 0.66 4 1.32 4 2 C2.68 2 1.36 2 0 2 C0 1.34 0 0.68 0 0 Z " fill="#000000" transform="translate(30,8)"/>
</svg>
