<?xml version="1.0" encoding="UTF-8"?>
<svg version="1.1" xmlns="http://www.w3.org/2000/svg" width="48" height="48">
<path d="M0 0 C5.86557414 2.48869188 9.03944868 5.38110595 11.515625 11.28515625 C13.5909381 18.98154351 13.44781663 26.58589853 9.4609375 33.58203125 C8.17869123 35.32314157 6.95678549 36.78075631 5.29296875 38.16796875 C2.29296875 38.23046875 2.29296875 38.23046875 -0.70703125 37.16796875 C-1.16078125 36.21921875 -1.61453125 35.27046875 -2.08203125 34.29296875 C-3.88020204 30.834948 -5.24402346 29.81537879 -8.921875 28.60546875 C-13.46320544 27.89210408 -18.04971617 28.12427333 -22.62744141 28.45361328 C-26.55649336 28.63087044 -28.4639222 28.33632334 -31.73046875 26.07421875 C-34.17234103 22.48379785 -34.1494931 20.80818047 -33.64453125 16.54296875 C-33.47244141 14.85300781 -33.47244141 14.85300781 -33.296875 13.12890625 C-32.70703125 10.16796875 -32.70703125 10.16796875 -30.70703125 7.16796875 C-30.04703125 7.16796875 -29.38703125 7.16796875 -28.70703125 7.16796875 C-28.62453125 6.56984375 -28.54203125 5.97171875 -28.45703125 5.35546875 C-27.42488561 2.34504397 -26.53890763 1.65470385 -23.70703125 0.16796875 C-21.37886641 -0.22558225 -19.08562211 -0.45678072 -16.73046875 -0.62109375 C-5.74625808 -1.7661659 -5.74625808 -1.7661659 0 0 Z " fill="#85654F" transform="translate(34.70703125,6.83203125)"/>
<path d="M0 0 C5.86557414 2.48869188 9.03944868 5.38110595 11.515625 11.28515625 C13.5909381 18.98154351 13.44781663 26.58589853 9.4609375 33.58203125 C8.17869123 35.32314157 6.95678549 36.78075631 5.29296875 38.16796875 C2.29296875 38.23046875 2.29296875 38.23046875 -0.70703125 37.16796875 C-1.16078125 36.21921875 -1.61453125 35.27046875 -2.08203125 34.29296875 C-3.88020204 30.834948 -5.24402346 29.81537879 -8.921875 28.60546875 C-13.46320544 27.89210408 -18.04971617 28.12427333 -22.62744141 28.45361328 C-26.55649336 28.63087044 -28.4639222 28.33632334 -31.73046875 26.07421875 C-34.17234103 22.48379785 -34.1494931 20.80818047 -33.64453125 16.54296875 C-33.47244141 14.85300781 -33.47244141 14.85300781 -33.296875 13.12890625 C-32.70703125 10.16796875 -32.70703125 10.16796875 -30.70703125 7.16796875 C-30.04703125 7.16796875 -29.38703125 7.16796875 -28.70703125 7.16796875 C-28.62453125 6.56984375 -28.54203125 5.97171875 -28.45703125 5.35546875 C-27.42488561 2.34504397 -26.53890763 1.65470385 -23.70703125 0.16796875 C-21.37886641 -0.22558225 -19.08562211 -0.45678072 -16.73046875 -0.62109375 C-5.74625808 -1.7661659 -5.74625808 -1.7661659 0 0 Z M-17.70703125 1.16796875 C-19.70491563 1.51375643 -21.70462576 1.84940424 -23.70703125 2.16796875 C-23.37703125 3.15796875 -23.04703125 4.14796875 -22.70703125 5.16796875 C-23.03703125 5.49796875 -23.36703125 5.82796875 -23.70703125 6.16796875 C-24.36703125 5.17796875 -25.02703125 4.18796875 -25.70703125 3.16796875 C-26.71814218 6.21710103 -26.71814218 6.21710103 -25.70703125 9.16796875 C-26.69703125 8.83796875 -27.68703125 8.50796875 -28.70703125 8.16796875 C-30.3732455 9.33248885 -30.3732455 9.33248885 -31.70703125 11.16796875 C-31.47659261 13.82262924 -31.47659261 13.82262924 -30.70703125 16.16796875 C-30.04703125 16.16796875 -29.38703125 16.16796875 -28.70703125 16.16796875 C-28.04703125 14.51796875 -27.38703125 12.86796875 -26.70703125 11.16796875 C-27.03703125 12.15796875 -27.36703125 13.14796875 -27.70703125 14.16796875 C-27.74578046 15.83418491 -27.75205985 17.50191047 -27.70703125 19.16796875 C-26.71703125 18.17796875 -25.72703125 17.18796875 -24.70703125 16.16796875 C-23.71703125 16.49796875 -22.72703125 16.82796875 -21.70703125 17.16796875 C-21.70703125 16.17796875 -21.70703125 15.18796875 -21.70703125 14.16796875 C-21.04703125 14.16796875 -20.38703125 14.16796875 -19.70703125 14.16796875 C-20.03703125 15.48796875 -20.36703125 16.80796875 -20.70703125 18.16796875 C-22.35703125 18.16796875 -24.00703125 18.16796875 -25.70703125 18.16796875 C-26.03703125 19.15796875 -26.36703125 20.14796875 -26.70703125 21.16796875 C-25.71703125 21.82796875 -24.72703125 22.48796875 -23.70703125 23.16796875 C-23.37703125 22.50796875 -23.04703125 21.84796875 -22.70703125 21.16796875 C-22.37703125 21.82796875 -22.04703125 22.48796875 -21.70703125 23.16796875 C-22.03703125 23.82796875 -22.36703125 24.48796875 -22.70703125 25.16796875 C-20.72703125 25.16796875 -18.74703125 25.16796875 -16.70703125 25.16796875 C-16.70703125 24.50796875 -16.70703125 23.84796875 -16.70703125 23.16796875 C-16.37703125 23.82796875 -16.04703125 24.48796875 -15.70703125 25.16796875 C-14.05703125 25.16796875 -12.40703125 25.16796875 -10.70703125 25.16796875 C-10.37703125 26.15796875 -10.04703125 27.14796875 -9.70703125 28.16796875 C-8.42828125 28.35359375 -7.14953125 28.53921875 -5.83203125 28.73046875 C-5.11273437 28.83488281 -4.3934375 28.93929687 -3.65234375 29.046875 C-1.62562458 29.33639845 -1.62562458 29.33639845 0.29296875 28.16796875 C-0.03703125 29.48796875 -0.36703125 30.80796875 -0.70703125 32.16796875 C-0.04703125 32.16796875 0.61296875 32.16796875 1.29296875 32.16796875 C0.79796875 33.15796875 0.79796875 33.15796875 0.29296875 34.16796875 C2.27296875 34.16796875 4.25296875 34.16796875 6.29296875 34.16796875 C5.30296875 33.83796875 4.31296875 33.50796875 3.29296875 33.16796875 C4.07671875 33.08546875 4.86046875 33.00296875 5.66796875 32.91796875 C8.37827213 32.45156013 8.37827213 32.45156013 9.44921875 30.41796875 C10.38825083 27.9138832 10.49629129 26.08093514 10.41796875 23.41796875 C10.39992187 22.61875 10.381875 21.81953125 10.36328125 20.99609375 C10.34007812 20.3928125 10.316875 19.78953125 10.29296875 19.16796875 C9.96296875 19.82796875 9.63296875 20.48796875 9.29296875 21.16796875 C8.30296875 20.83796875 7.31296875 20.50796875 6.29296875 20.16796875 C6.29296875 19.50796875 6.29296875 18.84796875 6.29296875 18.16796875 C6.78796875 17.69359375 7.28296875 17.21921875 7.79296875 16.73046875 C9.63923466 15.16826933 9.63923466 15.16826933 9.29296875 12.16796875 C8.30296875 12.16796875 7.31296875 12.16796875 6.29296875 12.16796875 C6.29296875 13.15796875 6.29296875 14.14796875 6.29296875 15.16796875 C6.14859375 14.36359375 6.00421875 13.55921875 5.85546875 12.73046875 C5.55161626 10.24693169 5.55161626 10.24693169 4.29296875 9.16796875 C4.62296875 8.17796875 4.95296875 7.18796875 5.29296875 6.16796875 C5.41671875 6.80734375 5.54046875 7.44671875 5.66796875 8.10546875 C5.87421875 8.78609375 6.08046875 9.46671875 6.29296875 10.16796875 C6.95296875 10.49796875 7.61296875 10.82796875 8.29296875 11.16796875 C7.63296875 9.18796875 6.97296875 7.20796875 6.29296875 5.16796875 C5.52984375 5.06484375 4.76671875 4.96171875 3.98046875 4.85546875 C1.12237451 4.12432836 0.1355399 3.39844962 -1.70703125 1.16796875 C-2.36703125 2.48796875 -3.02703125 3.80796875 -3.70703125 5.16796875 C-3.83078125 4.52859375 -3.95453125 3.88921875 -4.08203125 3.23046875 C-4.28828125 2.54984375 -4.49453125 1.86921875 -4.70703125 1.16796875 C-8.74572409 -0.85137767 -13.48772213 -0.05699196 -17.70703125 1.16796875 Z " fill="#15100C" transform="translate(34.70703125,6.83203125)"/>
<path d="M0 0 C0.33 1.32 0.66 2.64 1 4 C3.97 4.495 3.97 4.495 7 5 C6.67 5.66 6.34 6.32 6 7 C6.33 7.33 6.66 7.66 7 8 C6.57206674 10.2109885 6.00940379 11.98119242 5 14 C9.455 14.99 9.455 14.99 14 16 C13.125 21.75 13.125 21.75 12 24 C9.4375 24.625 9.4375 24.625 7 25 C7.99 25.33 8.98 25.66 10 26 C8.02 26 6.04 26 4 26 C4 25.34 4 24.68 4 24 C3.67 23.34 3.34 22.68 3 22 C3.33 21.34 3.66 20.68 4 20 C3.01 20.33 2.02 20.66 1 21 C-2.625 20.6875 -2.625 20.6875 -6 20 C-6.33 19.34 -6.66 18.68 -7 18 C-5.40811521 14.11978082 -4.23537146 13.10956947 -0.375 11.3125 C0.73875 10.879375 1.8525 10.44625 3 10 C3.33 9.34 3.66 8.68 4 8 C3.37351562 8.3609375 2.74703125 8.721875 2.1015625 9.09375 C1.28429688 9.5578125 0.46703125 10.021875 -0.375 10.5 C-1.18710937 10.9640625 -1.99921875 11.428125 -2.8359375 11.90625 C-5 13 -5 13 -7 13 C-7.375 10.25 -7.375 10.25 -7 7 C-4.0625 4.8125 -4.0625 4.8125 -1 3 C-0.67 2.01 -0.34 1.02 0 0 Z " fill="#4E3B2E" transform="translate(31,15)"/>
<path d="M0 0 C0.66 0.33 1.32 0.66 2 1 C2.625 3.0625 2.625 3.0625 3 5 C3.66 3.68 4.32 2.36 5 1 C5.391875 1.474375 5.78375 1.94875 6.1875 2.4375 C8.40808374 4.35179633 10.13375709 4.61266988 13 5 C13.66 6.98 14.32 8.96 15 11 C14.01 10.34 13.02 9.68 12 9 C12 8.01 12 7.02 12 6 C11.02187357 9.04305999 10.95439473 10.9677447 12 14 C12.33 14.33 12.66 14.66 13 15 C13 14.01 13 13.02 13 12 C13.99 12 14.98 12 16 12 C15.625 14.4375 15.625 14.4375 15 17 C14.34 17.33 13.68 17.66 13 18 C13 18.66 13 19.32 13 20 C13.99 20.33 14.98 20.66 16 21 C16.33 20.34 16.66 19.68 17 19 C17 20.32 17 21.64 17 23 C13.01803543 24.05404945 10.01804691 23.84098656 6 23 C6.66 22.67 7.32 22.34 8 22 C8.72886734 19.2303041 9 16.87137415 9 14 C7.14549434 12.14549434 5.53735644 11.62024268 3 11 C-0.64732778 12.78790578 -2.54587832 14.09175664 -4.375 17.75 C-4.58125 18.4925 -4.7875 19.235 -5 20 C-6.32 20 -7.64 20 -9 20 C-8.01 19.67 -7.02 19.34 -6 19 C-5.67 16.69 -5.34 14.38 -5 12 C-3.35 11.67 -1.7 11.34 0 11 C-0.34444881 8.52733235 -0.34444881 8.52733235 -1 6 C-1.66 5.67 -2.32 5.34 -3 5 C-2.34 3.68 -1.68 2.36 -1 1 C-2.65 1 -4.3 1 -6 1 C-5.01 1.33 -4.02 1.66 -3 2 C-3.33 2.99 -3.66 3.98 -4 5 C-5.65 4.67 -7.3 4.34 -9 4 C-9 3.01 -9 2.02 -9 1 C-6.01405576 -0.49297212 -3.29146376 -0.11755228 0 0 Z " fill="#EAB18A" transform="translate(28,7)"/>
<path d="M0 0 C0.99 0.99 1.98 1.98 3 3 C3.66 2.34 4.32 1.68 5 1 C7.625 1.375 7.625 1.375 10 2 C9.67 2.99 9.34 3.98 9 5 C9.66 5 10.32 5 11 5 C10.67 5.99 10.34 6.98 10 8 C9.01 8 8.02 8 7 8 C6.67 6.68 6.34 5.36 6 4 C6 5.32 6 6.64 6 8 C7.98 8.66 9.96 9.32 12 10 C11.01 10.66 10.02 11.32 9 12 C8.63583953 14.43693311 8.63583953 14.43693311 8.8125 17.125 C8.83957031 18.03507812 8.86664063 18.94515625 8.89453125 19.8828125 C8.92933594 20.58148437 8.96414062 21.28015625 9 22 C7.02 22 5.04 22 3 22 C3.33 21.34 3.66 20.68 4 20 C3.67 19.01 3.34 18.02 3 17 C2.34 17.99 1.68 18.98 1 20 C0.34 19.01 -0.32 18.02 -1 17 C-0.67 16.34 -0.34 15.68 0 15 C1.65 15 3.3 15 5 15 C5.33 13.68 5.66 12.36 6 11 C5.34 11 4.68 11 4 11 C4 11.99 4 12.98 4 14 C2.68 14 1.36 14 0 14 C-0.66 14.66 -1.32 15.32 -2 16 C-1.67 13.69 -1.34 11.38 -1 9 C-1.66 10.32 -2.32 11.64 -3 13 C-3.99 12.67 -4.98 12.34 -6 12 C-5.6875 9.625 -5.6875 9.625 -5 7 C-4.01 6.34 -3.02 5.68 -2 5 C-1.34 5.33 -0.68 5.66 0 6 C-0.2784375 4.7934375 -0.2784375 4.7934375 -0.5625 3.5625 C-0.706875 2.716875 -0.85125 1.87125 -1 1 C-0.67 0.67 -0.34 0.34 0 0 Z " fill="#A67E62" transform="translate(9,10)"/>
<path d="M0 0 C0.33 0.99 0.66 1.98 1 3 C1.66 3.33 2.32 3.66 3 4 C2.67 4.33 2.34 4.66 2 5 C2.99 5 3.98 5 5 5 C5.33 4.01 5.66 3.02 6 2 C6.33 3.32 6.66 4.64 7 6 C7.99 6 8.98 6 10 6 C10.33 5.34 10.66 4.68 11 4 C11.66 4.33 12.32 4.66 13 5 C13 5.99 13 6.98 13 8 C16.3 8.33 19.6 8.66 23 9 C23 9.99 23 10.98 23 12 C23.66 11.67 24.32 11.34 25 11 C24.79375 11.5775 24.5875 12.155 24.375 12.75 C23.91338739 15.51967567 24.57055055 16.64561267 26 19 C24.1875 18.875 24.1875 18.875 22 18 C21.5875 17.05125 21.175 16.1025 20.75 15.125 C18.8512832 11.73443428 17.46308701 10.6454405 13.7890625 9.44140625 C9.21476927 8.71746348 4.60667563 8.92135424 -0.00830078 9.19775391 C-3.72619163 9.34794629 -5.54852705 9.35963606 -8.515625 6.99609375 C-9.00546875 6.33738281 -9.4953125 5.67867187 -10 5 C-5.545 5.99 -5.545 5.99 -1 7 C-1 6.34 -1 5.68 -1 5 C-1.66 4.67 -2.32 4.34 -3 4 C-2.34 4 -1.68 4 -1 4 C-0.67 2.68 -0.34 1.36 0 0 Z " fill="#0F0C09" transform="translate(12,26)"/>
<path d="M0 0 C0.66 0.33 1.32 0.66 2 1 C1.01 2.485 1.01 2.485 0 4 C0 4.99 0 5.98 0 7 C0.66 5.68 1.32 4.36 2 3 C2.33 3.99 2.66 4.98 3 6 C3.66 6.33 4.32 6.66 5 7 C5 6.01 5 5.02 5 4 C5.66 4 6.32 4 7 4 C6.67 5.32 6.34 6.64 6 8 C4.35 8 2.7 8 1 8 C1.52268466 10.76276177 2.10869587 13.3260876 3 16 C-3.52307692 15.38461538 -3.52307692 15.38461538 -5.9375 13.4375 C-6.4634375 12.7259375 -6.4634375 12.7259375 -7 12 C-6.34 10.02 -5.68 8.04 -5 6 C-4.01 6 -3.02 6 -2 6 C-1.855625 5.195625 -1.71125 4.39125 -1.5625 3.5625 C-1 1 -1 1 0 0 Z " fill="#6A503F" transform="translate(8,17)"/>
<path d="M0 0 C1.53202706 0.25195908 3.05257128 0.57596777 4.5625 0.9375 C5.38878906 1.13214844 6.21507812 1.32679687 7.06640625 1.52734375 C8.02353516 1.76130859 8.02353516 1.76130859 9 2 C8.01 2.66 7.02 3.32 6 4 C5.63583953 6.43693311 5.63583953 6.43693311 5.8125 9.125 C5.83957031 10.03507812 5.86664063 10.94515625 5.89453125 11.8828125 C5.92933594 12.58148438 5.96414062 13.28015625 6 14 C4.02 14 2.04 14 0 14 C0.33 13.34 0.66 12.68 1 12 C0.67 11.01 0.34 10.02 0 9 C-0.99 10.485 -0.99 10.485 -2 12 C-2.66 11.01 -3.32 10.02 -4 9 C-3.67 8.34 -3.34 7.68 -3 7 C-1.35 7 0.3 7 2 7 C2.33 5.68 2.66 4.36 3 3 C2.34 3 1.68 3 1 3 C1 3.99 1 4.98 1 6 C0.01 5.67 -0.98 5.34 -2 5 C-1.125 1.125 -1.125 1.125 0 0 Z " fill="#F4B990" transform="translate(12,18)"/>
<path d="M0 0 C-0.66 0 -1.32 0 -2 0 C-2 0.99 -2 1.98 -2 3 C1.27773504 2.24849977 1.27773504 2.24849977 3 -1 C3.99 -1 4.98 -1 6 -1 C5.125 4.75 5.125 4.75 4 7 C1.4375 7.625 1.4375 7.625 -1 8 C-0.01 8.33 0.98 8.66 2 9 C0.02 9 -1.96 9 -4 9 C-4 8.34 -4 7.68 -4 7 C-4.33 6.34 -4.66 5.68 -5 5 C-4.67 4.34 -4.34 3.68 -4 3 C-4.99 3.33 -5.98 3.66 -7 4 C-9.00875442 3.72428861 -11.01178687 3.39764263 -13 3 C-8.8341563 0.22277086 -4.9360889 -1.89849573 0 0 Z " fill="#E3AC86" transform="translate(39,32)"/>
<path d="M0 0 C0.66 0.33 1.32 0.66 2 1 C1.49396008 3.16874252 1.00016187 4.99967627 0 7 C0.66 7 1.32 7 2 7 C2.3125 9.3125 2.3125 9.3125 2 12 C0.35666496 13.03789581 -1.31243867 14.03567924 -3 15 C-4.34689915 17.57099402 -4.34689915 17.57099402 -5 20 C-6.32 20 -7.64 20 -9 20 C-8.01 19.67 -7.02 19.34 -6 19 C-5.67 16.69 -5.34 14.38 -5 12 C-3.35 11.67 -1.7 11.34 0 11 C-0.34444881 8.52733235 -0.34444881 8.52733235 -1 6 C-1.66 5.67 -2.32 5.34 -3 5 C-2.34 3.68 -1.68 2.36 -1 1 C-2.65 1 -4.3 1 -6 1 C-5.01 1.33 -4.02 1.66 -3 2 C-3.33 2.99 -3.66 3.98 -4 5 C-5.65 4.67 -7.3 4.34 -9 4 C-9 3.01 -9 2.02 -9 1 C-6.01405576 -0.49297212 -3.29146376 -0.11755228 0 0 Z " fill="#F6BA91" transform="translate(28,7)"/>
<path d="M0 0 C0.33 0.66 0.66 1.32 1 2 C-10.52164009 4.29612756 -10.52164009 4.29612756 -16 4 C-15.16666667 6.16666667 -15.16666667 6.16666667 -13 7 C-13.99 7.99 -14.98 8.98 -16 10 C-16.66 8.68 -17.32 7.36 -18 6 C-18 7.65 -18 9.3 -18 11 C-19.32 11.33 -20.64 11.66 -22 12 C-22.12375 12.680625 -22.2475 13.36125 -22.375 14.0625 C-23.09100877 17.4277412 -24.02945125 20.70013425 -25 24 C-25.33 24 -25.66 24 -26 24 C-25.8858134 22.06183265 -25.75826577 20.12444901 -25.625 18.1875 C-25.55539063 17.10855469 -25.48578125 16.02960937 -25.4140625 14.91796875 C-25 12 -25 12 -23 9 C-22.34 9 -21.68 9 -21 9 C-20.9175 8.401875 -20.835 7.80375 -20.75 7.1875 C-19.71785436 4.17707522 -18.83187638 3.4867351 -16 2 C-13.67183516 1.606449 -11.37859086 1.37525053 -9.0234375 1.2109375 C-5.79234031 0.87410497 -3.42030441 -0.09000801 0 0 Z " fill="#0B0806" transform="translate(27,5)"/>
<path d="M0 0 C0.66 0.66 1.32 1.32 2 2 C1.625 4.125 1.625 4.125 1 6 C1.66 6 2.32 6 3 6 C3 6.66 3 7.32 3 8 C3.62648438 7.6390625 4.25296875 7.278125 4.8984375 6.90625 C5.71570312 6.4421875 6.53296875 5.978125 7.375 5.5 C8.59316406 4.80390625 8.59316406 4.80390625 9.8359375 4.09375 C12 3 12 3 14 3 C13 6 13 6 11.29296875 7.09765625 C10.59816406 7.41605469 9.90335938 7.73445313 9.1875 8.0625 C8.50042969 8.38347656 7.81335937 8.70445313 7.10546875 9.03515625 C6.41066406 9.35355469 5.71585938 9.67195313 5 10 C3.97326172 10.55494141 3.97326172 10.55494141 2.92578125 11.12109375 C1 12 1 12 -2 12 C-3.62950412 7.87831311 -4.26264601 5.29299643 -3 1 C-2.01 0.67 -1.02 0.34 0 0 Z " fill="#755845" transform="translate(21,20)"/>
<path d="M0 0 C0.99 0.33 1.98 0.66 3 1 C3 1.99 3 2.98 3 4 C6.3 4.33 9.6 4.66 13 5 C13 5.99 13 6.98 13 8 C13.66 7.67 14.32 7.34 15 7 C14.690625 7.86625 14.690625 7.86625 14.375 8.75 C13.91338739 11.51967567 14.57055055 12.64561267 16 15 C14.1875 14.875 14.1875 14.875 12 14 C11.5875 13.05125 11.175 12.1025 10.75 11.125 C8.84147737 7.71692387 8.46825865 7.49601162 5 6.3125 C4.319375 6.12300781 3.63875 5.93351562 2.9375 5.73828125 C0.70205207 4.88646742 -0.43216019 3.77851828 -2 2 C-1.34 2 -0.68 2 0 2 C0 1.34 0 0.68 0 0 Z " fill="#0D0A08" transform="translate(22,30)"/>
<path d="M0 0 C3 1 3 1 4 3 C6.52733235 3.65555119 6.52733235 3.65555119 9 4 C9.66 5.98 10.32 7.96 11 10 C10.01 9.34 9.02 8.68 8 8 C8 7.01 8 6.02 8 5 C7.34 6.32 6.68 7.64 6 9 C4.35 9 2.7 9 1 9 C0.67 6.03 0.34 3.06 0 0 Z " fill="#E0AA84" transform="translate(32,8)"/>
<path d="M0 0 C0.33 0 0.66 0 1 0 C1 1.65 1 3.3 1 5 C4.0745356 4.2236068 4.0745356 4.2236068 6 2 C6 2.99 6 3.98 6 5 C6.99 4.67 7.98 4.34 9 4 C9 3.01 9 2.02 9 1 C9.99 0.67 10.98 0.34 12 0 C12.33 1.65 12.66 3.3 13 5 C12.195625 5.12375 11.39125 5.2475 10.5625 5.375 C9.2940625 5.684375 9.2940625 5.684375 8 6 C7.67 6.66 7.34 7.32 7 8 C3.7 7.01 0.4 6.02 -3 5 C-2.34 4.67 -1.68 4.34 -1 4 C-0.34786708 1.97536745 -0.34786708 1.97536745 0 0 Z " fill="#3E2F25" transform="translate(15,13)"/>
<path d="M0 0 C0.7940625 0.07863281 1.588125 0.15726563 2.40625 0.23828125 C4.5 0.6875 4.5 0.6875 6.5 2.6875 C5.51 4.1725 5.51 4.1725 4.5 5.6875 C3.51 5.6875 2.52 5.6875 1.5 5.6875 C1.5 4.6975 1.5 3.7075 1.5 2.6875 C-0.81 3.0175 -3.12 3.3475 -5.5 3.6875 C-5.83 2.6975 -6.16 1.7075 -6.5 0.6875 C-4.02756353 -0.54871824 -2.72682061 -0.29658601 0 0 Z " fill="#34271F" transform="translate(35.5,29.3125)"/>
<path d="M0 0 C2.475 0.495 2.475 0.495 5 1 C5 2.32 5 3.64 5 5 C7.31 5 9.62 5 12 5 C12 6.32 12 7.64 12 9 C8.7 8.01 5.4 7.02 2 6 C2 4.68 2 3.36 2 2 C1.34 2 0.68 2 0 2 C0 1.34 0 0.68 0 0 Z " fill="#E2AB86" transform="translate(28,12)"/>
<path d="M0 0 C1.67542976 0.28604898 3.34385343 0.61781233 5 1 C4.67 1.99 4.34 2.98 4 4 C4.66 4 5.32 4 6 4 C5.67 4.99 5.34 5.98 5 7 C4.01 7 3.02 7 2 7 C1.67 5.68 1.34 4.36 1 3 C0.67 3.99 0.34 4.98 0 6 C-0.66 6 -1.32 6 -2 6 C-1.125 1.125 -1.125 1.125 0 0 Z " fill="#E6AE88" transform="translate(14,11)"/>
<path d="M0 0 C0.33 0.66 0.66 1.32 1 2 C2.98 1.34 4.96 0.68 7 0 C7.66 0.66 8.32 1.32 9 2 C2.25 6 2.25 6 0 6 C0 4.02 0 2.04 0 0 Z " fill="#4A382C" transform="translate(24,22)"/>
<path d="M0 0 C2.97 0.495 2.97 0.495 6 1 C4.95125002 3.62187494 4.35068687 4.79371361 1.875 6.25 C1.25625 6.4975 0.6375 6.745 0 7 C-0.66 5.68 -1.32 4.36 -2 3 C-1.34 2.67 -0.68 2.34 0 2 C0 1.34 0 0.68 0 0 Z " fill="#2F241C" transform="translate(38,38)"/>
<path d="M0 0 C6.52307692 0.61538462 6.52307692 0.61538462 8.9375 2.5625 C9.288125 3.036875 9.63875 3.51125 10 4 C8.35 3.67 6.7 3.34 5 3 C5 4.32 5 5.64 5 7 C3.68 7 2.36 7 1 7 C1.33 5.35 1.66 3.7 2 2 C1.34 2 0.68 2 0 2 C0 1.34 0 0.68 0 0 Z " fill="#1F1712" transform="translate(28,6)"/>
<path d="M0 0 C0.33 0.99 0.66 1.98 1 3 C1.66 3.33 2.32 3.66 3 4 C2.01 5.32 1.02 6.64 0 8 C-1.32 7.67 -2.64 7.34 -4 7 C-3.67 6.01 -3.34 5.02 -3 4 C-2.34 4 -1.68 4 -1 4 C-0.67 2.68 -0.34 1.36 0 0 Z " fill="#533F31" transform="translate(44,20)"/>
<path d="M0 0 C0.33 0.99 0.66 1.98 1 3 C-1.97 3 -4.94 3 -8 3 C-8 2.01 -8 1.02 -8 0 C-5.13822943 -1.43088528 -3.06624227 -0.59991697 0 0 Z " fill="#7D5F4A" transform="translate(19,9)"/>
<path d="M0 0 C-1.32 0.33 -2.64 0.66 -4 1 C-3.01 1.33 -2.02 1.66 -1 2 C-1.33 2.99 -1.66 3.98 -2 5 C-3.65 4.67 -5.3 4.34 -7 4 C-7 3.01 -7 2.02 -7 1 C-4.53721199 -0.231394 -2.7204945 -0.07159196 0 0 Z " fill="#E1AA85" transform="translate(26,7)"/>
<path d="M0 0 C0.99 0 1.98 0 3 0 C2.67 1.98 2.34 3.96 2 6 C0.68 5.67 -0.64 5.34 -2 5 C-1.34 3.35 -0.68 1.7 0 0 Z " fill="#BD8F6F" transform="translate(42,31)"/>
<path d="M0 0 C0.99 0.33 1.98 0.66 3 1 C2.25 2.9375 2.25 2.9375 1 5 C-1.125 5.75 -1.125 5.75 -3 6 C-3.33 5.34 -3.66 4.68 -4 4 C-2.68 2.68 -1.36 1.36 0 0 Z " fill="#7E5F4A" transform="translate(28,29)"/>
<path d="M0 0 C-1 3 -1 3 -2.77734375 4.1328125 C-3.49019531 4.46023437 -4.20304687 4.78765625 -4.9375 5.125 C-5.64777344 5.45757813 -6.35804687 5.79015625 -7.08984375 6.1328125 C-7.72019531 6.41898438 -8.35054687 6.70515625 -9 7 C-9.99 7.495 -9.99 7.495 -11 8 C-9.94434467 4.71573897 -8.38339648 3.42848444 -5.5 1.75 C-2 0 -2 0 0 0 Z " fill="#DAA581" transform="translate(35,23)"/>
<path d="M0 0 C2.475 0.99 2.475 0.99 5 2 C5.33 1.34 5.66 0.68 6 0 C6 1.32 6 2.64 6 4 C3.6875 4.6875 3.6875 4.6875 1 5 C-0.8125 3.5625 -0.8125 3.5625 -2 2 C-1.34 1.34 -0.68 0.68 0 0 Z " fill="#F2B78F" transform="translate(39,26)"/>
<path d="M0 0 C-2 3 -2 3 -3.9453125 3.51171875 C-4.66460938 3.56972656 -5.38390625 3.62773437 -6.125 3.6875 C-8.043125 3.8421875 -8.043125 3.8421875 -10 4 C-10 3.34 -10 2.68 -10 2 C-6.49223216 0.39644899 -3.85645121 -0.22036864 0 0 Z " fill="#E6AE88" transform="translate(35,20)"/>
<path d="M0 0 C0.99 0.33 1.98 0.66 3 1 C3 3.64 3 6.28 3 9 C2.34 9 1.68 9 1 9 C0.67 6.03 0.34 3.06 0 0 Z " fill="#A98064" transform="translate(32,8)"/>
<path d="M0 0 C0.33 0.99 0.66 1.98 1 3 C1.66 3.33 2.32 3.66 3 4 C2.01 4.33 1.02 4.66 0 5 C0.33 5.99 0.66 6.98 1 8 C-0.65 8 -2.3 8 -4 8 C-3.01 7.67 -2.02 7.34 -1 7 C-1 6.34 -1 5.68 -1 5 C-1.66 4.67 -2.32 4.34 -3 4 C-2.34 4 -1.68 4 -1 4 C-0.67 2.68 -0.34 1.36 0 0 Z " fill="#3B2C23" transform="translate(12,26)"/>
<path d="M0 0 C0.99 0.33 1.98 0.66 3 1 C2.34 2.65 1.68 4.3 1 6 C0.01 5.67 -0.98 5.34 -2 5 C-1.125 1.125 -1.125 1.125 0 0 Z " fill="#E3AC86" transform="translate(12,18)"/>
</svg>
